<svg version="1.1" id="Capa_1" xmlns="http://www.w3.org/2000/svg" xmlns:xlink="http://www.w3.org/1999/xlink" x="0px" y="0px" viewBox="0 0 1200 1200" enable-background="new 0 0 1200 1200" xml:space="preserve">
<g>
	<path fill="#3E9B66" d="M266.333,854.988c8.123-3.87,20.701-6.824,28.009-7.13c-23.273,15.15-44.688,32.847-67.91,47.845&#10;&#9;&#9;c-10.389,6.722-24.725,14.514-28.671,27.016c-4.252,13.444-2.088,26.711,1.502,39.722c-19.072-5.627-40.894-4.049-60.067-4.023&#10;&#9;&#9;c-18.919,0.051-37.329,0.866-55.637,3.768c13.343-6.468,30.352-13.419,37.125-15.812c19.708-7.053,40.639-17.366,56.477-31.447&#10;&#9;&#9;c32.669-29.079,50.187-62.766,66.255-101.877c1.782,11.917,6.544,26.711,11.458,38.144&#10;&#9;&#9;C256.708,855.497,262.386,856.872,266.333,854.988z" data-darkreader-inline-fill="" style="--darkreader-inline-fill: #fef486; fill: rgb(254, 246, 154);"/>
	<path fill="#79C67F" d="M1130.52,819.772c14.438,57.674-32.313,114.329-90.292,117.282c-28.391,1.426-57.444-9.319-79.725-26.66&#10;&#9;&#9;c-23.681-18.41-40.69-46.037-61.188-67.884c-21.694-23.146-44.255-43.287-72.977-57.317&#10;&#9;&#9;c-26.431-12.884-54.593-20.472-83.366-25.794c-0.051-0.356-16.143-3.081-14.234,7.741c5.831,33.127,11.433,62.206,41.479,82.093&#10;&#9;&#9;c21.032,13.954,50.824,17.289,74.887,8.377c-1.12,8.097-3.743,16.678-4.813,23.732c-1.961,13.113-3.59,26.303-2.979,39.595&#10;&#9;&#9;c0.688,14.641,3.87,28.62,10.465,41.174c-42.956-1.375-90.266,5.398-131.516,17.137c5.347-6.238,18.384-18.435,27.5-22.026&#10;&#9;&#9;c15.583-6.111,33.025-11.255,47.59-19.759c22.713-13.292,32.771-38.5,4.482-53.88c-11.942-6.468-26.227-5.907-39.34-7.333&#10;&#9;&#9;c-18.435-2.012-36.819-7.486-53.039-16.5c-15.201-8.428-28.595-19.785-38.933-33.789c-10.771-14.565-15.329-30.657-21.516-47.208&#10;&#9;&#9;c-0.102-1.579-0.713-2.903-1.706-3.921c-1.604-2.292-4.38-2.826-6.85-2.088c-1.197,0.229-2.343,0.738-3.31,1.579&#10;&#9;&#9;c-6.264,5.5-10.032,13.266-15.762,19.428c-5.22,5.576-10.949,10.669-16.831,15.507c-14.31,11.815-29.792,22.509-45.273,32.72&#10;&#9;&#9;c-15.838,10.465-25.208,18.206-43.262,24.241c-16.806,5.602-38.958,9.523-64.625,5.856c5.525-9.549,11.866-18.741,18.053-27.78&#10;&#9;&#9;c3.921-5.704-0.433-12.375-6.595-13.241c-32.389-4.558-60.958-23.299-78.12-51.104c-5.729-9.294-21.007-1.528-15.201,7.868&#10;&#9;&#9;c18.079,29.257,45.833,49.449,78.604,57.572c-6.289,9.625-12.12,19.301-17.035,29.333c-7.894,16.093-13.495,33.051-15.1,52.046&#10;&#9;&#9;c-1.146,13.674,4.711,28.086,10.134,38.525c-39.391-4.303-86.243-1.63-125.787,2.495c11.968-16.424,48.303-23.12,68.164-31.167&#10;&#9;&#9;c29.308-11.866,37.583-28.951,34.35-64.956c-0.433-4.889-3.488-5.398-7.359-5.169c-4.431,0.84-11.407-0.331-14.972-0.789&#10;&#9;&#9;c-27.525-3.488-33.917-11.127-54.873-25.056c-17.977-11.942-34.146-11.713-52.428-4.583c-10.644-29.919-9.192-62.206,3.692-91.565&#10;&#9;&#9;c2.674-6.06-4.94-13.648-10.975-10.211c-8.301,4.787-16.755,10.134-23.808,16.729c0.076-1.986,0.204-3.972,0.458-5.958&#10;&#9;&#9;c1.222-10.007,3.616-19.861,6.748-29.435c6.238-19.25,15.991-36.921,29.028-52.428c25.718-30.632,60.475-52.021,91.718-76.338&#10;&#9;&#9;c26.405-20.574,53.523-48.889,46.037-85.352c-3.132-15.38-13.139-29.104-28.213-34.426c-8.454-2.979-22.713-5.678-31.931-1.604&#10;&#9;&#9;c-7.715,3.208-9.981,10.593-10.567,17.519c-1.451,17.595-2.215,24.775-10.007,38.424c-4.685,8.199-10.236,14.463-16.424,21.694&#10;&#9;&#9;c-5.016,5.856-12.044,6.646-13.648,7.512c13.419-20.294,22.025-49.958,18.079-74.326c-0.764-4.711-7.919-7.079-11.127-3.412&#10;&#9;&#9;c-11.382,12.986-24.546,24.241-38.704,34.044c-12.299,8.505-31.294,24.063-47.285,17.62c-6.773-2.75-11.28-8.81-15.558-14.87&#10;&#9;&#9;c21.618-3.819,36.361-38.347,45.757-53.88c14.361-23.706,27.551-59.838,75.014-68.521c-5.424,6.442-18.079,19.403-23.095,26.711&#10;&#9;&#9;c-4.125,5.984,3.565,11.993,10.109,7.537c23.961-16.322,63.072-32.593,97.854-34.248c-8.683,5.296-32.007,15.863-40.079,23.655&#10;&#9;&#9;c-7.13,6.875-2.419,12.197,9.396,7.868c1.604-0.586,3.972-0.764,5.373-1.757c10.287-2.19,10.16-2.725,20.752-3.845&#10;&#9;&#9;c6.391-0.688,26.303-1.655,32.669-1.451c-5.424,2.674-22.127,8.148-26.431,11.713c-7.792,5.118-13.088,9.778-4.889,13.368&#10;&#9;&#9;c30.632,13.47,44.688,45.35,39.951,77.738c-5.22,35.826-34.4,61.773-56.35,88.255c-20.319,24.521-36.183,55.535-20.625,86.778&#10;&#9;&#9;c13.037,26.176,41.606,45.579,70.507,48.838c31.676,3.565,59.125-16.704,74.81-42.88c21.211-35.419,12.426-76.262,10.771-115.093&#10;&#9;&#9;c-1.655-38.933,10.644-81.15,37.914-110.306c24.699-26.38,54.796-47.667,80.998-72.569c48.813-46.444,91.59-83.06,125.94-141.167&#10;&#9;&#9;c-3.616,39.315,6.086,84.766,34.095,99.687c-22.153,8.174-50.442,19.174-71.093,29.282c-17.366,8.479-34.63,17.162-51.639,26.354&#10;&#9;&#9;c-9.65,5.22-33.866,18.944-47.208,29.333c-33.051,24.393-57.852,40.333-73.512,80.488c-7.664,19.632-10.44,29.079-7.079,49.475&#10;&#9;&#9;c2.241,13.419,5.678,31.37,6.671,44.942c0.738,10.109,0.611,11.968,3.208,21.771c1.375,5.118,9.6,4.583,12.069,1.095&#10;&#9;&#9;c6.315-8.912-1.961-35.139-4.813-50.85c-4.813-26.507-8.148-40.028,4.889-65.618c3.718-7.282,8.174-14.463,13.241-21.16&#10;&#9;&#9;c29.359-12.273,64.37,3.641,93.857,12.299c31.09,9.116,59.66,21.847,87.16,38.245c-18.053,3.234-30.759,12.502-42.931,27.347&#10;&#9;&#9;c-5.169,6.289-12.986,20.88-12.986,33.382c-8.887-14.463-23.324-31.778-33.764-44.891c-11.713-14.718-33.025-33.407-46.062-33.942&#10;&#9;&#9;c-5.067-0.229-6.035,4.762-3.794,8.505c4.38,7.41,12.146,10.873,18.588,16.118c7.588,6.188,14.667,13.317,20.905,20.88&#10;&#9;&#9;c11.586,14.081,22.662,28.722,33.738,43.287c-28.137-3.387-56.349-2.826-82.882,8.785c-20.396,8.912-53.549,27.347-45.222,54.465&#10;&#9;&#9;c0,2.394,1.35,4.609,4.1,4.507c1.681,0.611,3.463,0.484,4.736-0.688c38.602-6.086,75.982-11.713,115.322-9.905&#10;&#9;&#9;c35.852,1.63,66.153,12.681,94.977,33.942c28.595,21.083,56.324,45.655,80.488,71.704c23.681,25.565,43.72,54.236,69.208,78.171&#10;&#9;&#9;c22.127,20.778,48.303,40.97,79.19,45.273c26.252,3.667,55.636-4.991,73.002-25.667c15.634-18.639,20.752-45.706,11.993-68.546&#10;&#9;&#9;c-11.84-30.938-41.632-54.873-65.593-76.389c-12.859-11.56-28.238-22.153-38.729-36.081c-9.854-13.037-17.722-35.47-17.34-51.868&#10;&#9;&#9;c0.331-13.597,3.361-29.028,12.095-39.137c2.47-2.826,14.005-12.884,17.086-14.845c-1.324,3.896-4.074,14.896-3.718,19.301&#10;&#9;&#9;c0.535,6.748,3.387,14.87,3.234,21.44c-0.178,8.683-10.873,12.604-13.012,20.752c-2.699,10.313,2.928,23.248,8.606,31.574&#10;&#9;&#9;c7.232,10.567,18.181,18.512,27.958,26.583c12.681,10.516,25.718,20.6,38.245,31.294&#10;&#9;&#9;C1101.772,767.064,1122.856,789.064,1130.52,819.772z M608.631,754.154c3.387-6.391-7.053-14.234-11.356-7.995&#10;&#9;&#9;c-10.287,14.972-22.586,28.315-37.507,38.78c-6.417,4.507-13.241,8.454-20.396,11.688c-5.678,2.597-12.4,4.15-15.456,10.058&#10;&#9;&#9;c-1.171,2.266-0.382,7.512,2.954,7.613C559.946,815.265,594.245,781.349,608.631,754.154z M284.768,459.166&#10;&#9;&#9;c4.278-4.405,7.843-12.426-1.528-11.764c-4.583,0.331-10.262,2.292-11.738,2.979c-2.394,1.095-4.685,2.546-6.391,4.532&#10;&#9;&#9;c-4.736,5.5-1.477,11.229,3.845,14.641c1.757,1.146,4.711,0.611,6.111-0.891C278.148,465.328,281.611,462.425,284.768,459.166z" data-darkreader-inline-fill="" style="--darkreader-inline-fill: #ffe01a; fill: rgb(255, 221, 0);"/>
	<path fill="#3E9B66" d="M809.992,367.601c-12.986,23.986-8.021,62.843,10.771,82.373c-40.868,2.623-89.375-1.451-129.963,5.118&#10;&#9;&#9;c-26.023,4.227-64.829,13.444-88.586,27.551c13.292-10.389,27.449-21.16,45.757-33.637c13.877-10.72,29.206-19.53,44.917-27.653&#10;&#9;&#9;c15.711-8.097,31.829-15.481,47.361-23.324C761.104,387.539,787.712,376.564,809.992,367.601z" data-darkreader-inline-fill="" style="--darkreader-inline-fill: #fef486; fill: rgb(254, 246, 154);"/>
	<path fill="#3E9B66" d="M805.18,463.393c-10.694,8.581-20.421,19.097-25.59,32.975c-4.176,11.127-6.951,23.451-6.213,35.419&#10;&#9;&#9;c0.153,2.775,0.509,5.194,1.019,7.435c-24.521-16.424-55.535-29.384-84.232-37.914c-16.78-4.991-43.974-14.819-64.574-16.067&#10;&#9;&#9;c22.076-8.988,50.544-15.507,72.366-18.563C730.395,462.145,772.536,465.888,805.18,463.393z" data-darkreader-inline-fill="" style="--darkreader-inline-fill: #fef486; fill: rgb(254, 246, 154);"/>
	<path fill="#3E9B66" d="M651.027,836.629c-0.433,26.914,20.599,54.44,22.051,54.898c-19.301,22.153-32.44,50.213-44.229,77.102&#10;&#9;&#9;c-34.299-7.563-70.965-6.213-105.442-1.63c17.264-15.583,46.775-18.41,60.5-23.833c12.018-4.736,27.347-19.174,42.421-34.655&#10;&#9;&#9;c3.005-3.081,8.301-9.829,4.762-13.139c-19.428-18.053-50.824-19.988-68.979-38.857c1.12-0.738,2.215-1.477,3.285-2.215&#10;&#9;&#9;c15.813-10.694,31.778-21.567,46.419-33.866c6.162-5.169,14.183-11.738,20.549-19.148&#10;&#9;&#9;C636.08,813.865,642.854,825.96,651.027,836.629z" data-darkreader-inline-fill="" style="--darkreader-inline-fill: #fef486; fill: rgb(254, 246, 154);"/>
	<path fill="#240914" d="M1134.849,785.066c13.648,24.19,18.639,51.613,12.655,78.808c-11.204,51.002-56.171,88.076-108.319,90.19&#10;&#9;&#9;c-27.882,1.12-56.146-8.199-79.444-23.273c-25.106-16.271-41.301-41.683-60.958-63.606c-21.465-23.961-43.363-46.928-71.806-62.563&#10;&#9;&#9;c-24.979-13.75-52.734-21.924-80.667-27.373c4.507,21.593,11.535,43.262,29.028,57.444c20.167,16.322,35.775,22.331,61.951,9.268&#10;&#9;&#9;c12.222-6.137,23.4-0.076,24.241,5.271c2.954,18.715-5.907,31.88-7.563,50.646c-2.012,22.764,1.248,47.718,16.576,65.745&#10;&#9;&#9;c4.736,5.551,0.84,14.692-6.748,14.259c-54.567-2.979-106.995-0.255-158.787,18.512c-6.035,2.164-12.35-5.398-10.007-11.025&#10;&#9;&#9;c11.407-27.271,28.238-38.194,55.611-47.514c12.451-4.227,41.81-11.407,44.942-26.991c4.074-20.141-30.479-18.41-42.192-19.861&#10;&#9;&#9;c-28.62-3.488-56.35-14.106-78.833-32.211c1.4,8.708,6.289,17.442,12.324,23.12c3.488,3.259,5.984,9.294-0.637,15.456&#10;&#9;&#9;c-24.444,22.738-32.16,49.729-45.35,79.775c-1.961,4.456-6.009,6.671-10.822,5.424c-41.148-10.643-68.521-10.16-109.949-3.183&#10;&#9;&#9;c-6.035,0.993-18.435-2.47-14.539-10.822c9.192-19.683,20.09-24.012,40.079-28.926c14.132-3.488,26.685-6.442,38.678-15.609&#10;&#9;&#9;c9.752-7.461,21.567-16.449,30.326-25.03c-20.345-13.826-54.643-13.801-67.782-35.063c-32.618,17.697-59.303,25.106-109.312,21.007&#10;&#9;&#9;c-4.303,9.243-7.588,18.919-9.167,29.206c-3.132,20.167-1.044,32.363,11.509,48.023c6.671,8.352,3.896,20.6-8.377,18.792&#10;&#9;&#9;c-58.845-8.683-94.289-4.023-147.532,1.833c-6.722,0.738-11.306-4.889-9.498-11.306c6.646-23.757,30.225-34.4,52.25-40.232&#10;&#9;&#9;c13.674-3.641,28.442-5.831,40.664-13.444c14.743-9.167,18.028-21.185,16.271-38.856c-0.382,0.025-0.764,0.076-1.171,0.051&#10;&#9;&#9;c-17.595-1.197-33.153-2.47-48.762-10.822c-8.454-4.507-15.94-10.338-23.935-15.558c-9.549,8.25-20.905,14.921-31.192,22&#10;&#9;&#9;c-12.375,8.479-24.419,17.442-36.718,26.023c-9.676,6.722-27.5,13.623-31.37,25.743c-4.481,14.132,7.537,33.764,8.326,48.481&#10;&#9;&#9;c0.356,6.773-8.199,9.854-13.241,6.748c-19.81-12.299-50.06-8.25-72.468-8.123c-24.903,0.127-48.66,2.215-72.646,9.294&#10;&#9;&#9;c-4.94,1.451-11.255-3.438-10.414-8.759c3.361-21.414,28.977-29.486,46.674-36.361c20.467-7.951,43.388-13.824,61.369-27.471&#10;&#9;&#9;c18.799-14.267,33.897-33.068,46.594-52.814c14.285-22.229,27.704-46.419,38.755-70.711c0.458-8.836,1.808-17.671,3.998-26.354&#10;&#9;&#9;c-5.22,4.252-10.414,8.556-15.991,12.426c-1.044,1.553-2.903,2.266-4.66,2.164c-0.229-0.025-0.458-0.025-0.662-0.076&#10;&#9;&#9;c-1.273-0.229-2.444-0.917-3.183-2.088c-8.352-13.343-3.896-31.88-0.764-46.47c3.361-15.634,8.836-30.785,16.169-45.018&#10;&#9;&#9;c14.743-28.595,38.449-51.155,63.428-70.863c26.38-20.778,59.456-38.602,79.979-65.694c10.338-13.623,16.22-31.116,9.727-47.769&#10;&#9;&#9;c-3.794-9.752-10.873-18.97-21.491-20.116c-5.042-0.535-10.414,0.968-15.303,1.681c-0.076,34.935-24.75,81.532-62.894,83.213&#10;&#9;&#9;c-5.424,0.458-13.495-5.194-8.632-10.185c16.933-17.264,22.738-37.303,22.535-60.347c-12.171,12.171-26.049,23.604-41.123,32.211&#10;&#9;&#9;c0.713,0.942,1.426,1.833,2.292,2.648c2.47,2.343,3.565,5.424,1.655,8.454c-2.19,3.488-7.512,1.986-10.567,0.815&#10;&#9;&#9;c-2.877-1.146-5.806-2.623-8.352-4.532c-2.164,0.917-4.38,1.782-6.595,2.572c-23.604,8.225-41.785-6.9-51.537-27.5&#10;&#9;&#9;c-3.081-2.546-2.928-8.937,1.681-9.727c20.829-3.539,30.963-28.06,40.715-44.484c8.454-14.234,17.086-28.366,27.856-40.995&#10;&#9;&#9;c18.664-21.924,36.921-35.572,69.31-36.259c7.919-0.178,13.088,5.882,6.417,11.993c-0.815,0.738-8.046,9.931-8.912,10.593&#10;&#9;&#9;c26.991-15.023,62.843-22.993,92.914-21.567c7.181,0.356,10.542,11.56,3.183,14.488c-4.431,1.782-18.384,8.912-22.637,10.975&#10;&#9;&#9;c20.319-3.896,42.014-4.354,55.229-1.859c6.442,1.222,10.669,11.866,2.623,14.488c-10.338,3.361-20.396,9.6-30.581,14.437&#10;&#9;&#9;c19.225,13.063,31.447,34.451,34.706,58.005c4.481,32.287-7.613,61.289-26.991,86.549c-19.199,25.03-54.083,51.384-56.248,85.097&#10;&#9;&#9;c-2.266,35.597,40.715,66.153,73.843,61.951c38.576-4.914,59.965-50.442,59.532-85.174c-0.484-38.271-11.891-71.373-0.102-109.389&#10;&#9;&#9;c10.185-32.847,30.174-63.225,55.764-86.09c26.227-23.426,53.447-45.248,78.4-70.1c13.394-13.292,26.354-26.991,38.831-41.148&#10;&#9;&#9;c36.896-41.836,67.681-72.544,91.488-123.139c2.317-4.914,8.708-6.748,13.368-3.972c4.711,2.775,3.183,8.454,2.368,12.833&#10;&#9;&#9;c-1.248,6.85-2.343,13.725-3.183,20.625c-1.655,13.801-2.495,27.704-2.928,41.581c-0.433,14.387-1.197,29.588,3.692,43.338&#10;&#9;&#9;c5.729,16.144,14.972,20.523,29.053,24.725c2.725,0.815,12.579,1.935,14.463,4.481c4.609,6.238-2.343,9.192-6.162,12.502&#10;&#9;&#9;c-3.743,3.259-6.468,7.562-8.479,12.069c-9.138,20.473-5.463,41.854,5.831,60.475c2.826,4.66,5.755,9.243,8.734,13.725&#10;&#9;&#9;c2.47,3.743,4.456,8.071-0.61,10.745c-35.279,18.618-49.359,53.136-43.364,91.565c0.535,3.387,1.681,9.396-3.157,10.287&#10;&#9;&#9;c-10.454,1.926-20.843,5.104-30.205,10.205c-15.297,8.334-26.725,23.91-30.601,40.747c-1.375,5.984-0.357,13.113-3.59,18.563&#10;&#9;&#9;c-4.481,7.512-17.009,3.208-24.164,2.75c-33.021-2.115-65.539,2.601-92.962,22.405c-5.51,3.979-11.632,12.264-14.038,18.271&#10;&#9;&#9;c33.773-11.773,68.383-13.122,103.868-12.03c36.896,1.12,70.176,10.414,100.782,31.345c26.201,17.9,50.468,39.977,73.435,61.799&#10;&#9;&#9;c26.914,25.565,48.201,55.917,73.69,82.78c22.891,24.113,52.963,52.123,87.975,54.109c32.262,1.808,63.581-19.174,64.345-53.319&#10;&#9;&#9;c0.789-35.572-37.863-64.345-61.544-86.014c-22.051-20.167-45.324-36.183-55.917-65.185c-9.09-24.928-11.382-47.59,1.35-71.704&#10;&#9;&#9;c10.72-20.319,22.738-26.303,42.752-35.419c9.982-4.532,14.87,1.681,13.037,7.232c-0.255,0.764-3.387,7.104-4.125,7.41&#10;&#9;&#9;c-3.667,6.391-7.079,14.285-5.526,21.313c0.866,3.845,3.463,7.41,4.736,11.051c2.546,7.206,2.317,14.234-0.866,21.236&#10;&#9;&#9;c-2.139,4.66-7.893,7.766-9.701,11.993c-3.285,7.715,4.787,18.639,9.421,23.706c12.833,14.107,29.868,25.514,44.636,37.532&#10;&#9;&#9;C1097.418,740.557,1120.411,759.425,1134.849,785.066z M1040.229,937.055c57.979-2.954,104.729-59.609,90.292-117.282&#10;&#9;&#9;c-7.664-30.708-28.748-52.708-52.148-72.646c-12.528-10.694-25.565-20.778-38.245-31.294c-9.778-8.072-20.727-16.016-27.958-26.583&#10;&#9;&#9;c-5.678-8.326-11.306-21.262-8.606-31.574c2.139-8.148,12.833-12.069,13.012-20.752c0.153-6.569-2.699-14.692-3.234-21.44&#10;&#9;&#9;c-0.357-4.405,2.393-15.405,3.718-19.301c-3.081,1.961-14.616,12.019-17.086,14.845c-8.734,10.109-11.764,25.539-12.095,39.137&#10;&#9;&#9;c-0.382,16.398,7.486,38.831,17.34,51.868c10.491,13.928,25.87,24.521,38.729,36.081c23.961,21.516,53.752,45.451,65.593,76.389&#10;&#9;&#9;c8.759,22.84,3.641,49.907-11.993,68.546c-17.366,20.676-46.75,29.333-73.002,25.667c-30.887-4.303-57.063-24.495-79.19-45.273&#10;&#9;&#9;c-25.488-23.935-45.528-52.607-69.208-78.171c-24.164-26.049-51.893-50.62-80.488-71.704&#10;&#9;&#9;c-28.824-21.262-59.125-32.313-94.977-33.942c-20.301-0.923-40.625,0.139-60.818,2.293c-15.404,1.643-30.734,3.908-46.039,6.285&#10;&#9;&#9;c-6.35,0.986-14.759,5.784-17.3-2.492c-8.326-27.118,24.826-45.553,45.222-54.465c26.532-11.611,54.745-12.171,82.882-8.785&#10;&#9;&#9;c-11.076-14.565-22.153-29.206-33.738-43.287c-6.238-7.563-13.317-14.692-20.905-20.88c-6.442-5.245-14.208-8.708-18.588-16.118&#10;&#9;&#9;c-2.241-3.743-1.273-8.734,3.794-8.505c13.037,0.535,34.349,19.225,46.062,33.942c10.44,13.113,24.877,30.428,33.764,44.891&#10;&#9;&#9;c0-12.502,7.817-27.093,12.986-33.382c12.171-14.845,24.877-24.113,42.931-27.347c-27.5-16.398-56.069-29.13-87.16-38.245&#10;&#9;&#9;c-29.486-8.657-64.498-24.572-93.857-12.299c-5.067,6.697-9.523,13.877-13.241,21.16c-13.037,25.59-9.701,39.111-4.889,65.618&#10;&#9;&#9;c2.852,15.711,11.127,41.938,4.813,50.85c-2.47,3.488-10.694,4.023-12.069-1.095c-2.597-9.803-2.47-11.662-3.208-21.771&#10;&#9;&#9;c-0.993-13.572-4.431-31.523-6.671-44.942c-3.361-20.396-0.586-29.843,7.079-49.475c15.66-40.155,40.461-56.095,73.512-80.488&#10;&#9;&#9;c13.343-10.389,37.558-24.113,47.208-29.333c17.009-9.192,34.273-17.875,51.639-26.354c20.65-10.109,48.94-21.109,71.093-29.282&#10;&#9;&#9;c-28.009-14.921-37.711-60.373-34.095-99.687c-34.35,58.106-77.127,94.722-125.94,141.167&#10;&#9;&#9;c-26.201,24.903-56.299,46.19-80.998,72.569c-27.271,29.155-39.569,71.373-37.914,110.306&#10;&#9;&#9;c1.655,38.831,10.44,79.674-10.771,115.093c-15.685,26.176-43.134,46.444-74.81,42.88c-28.9-3.259-57.47-22.662-70.507-48.838&#10;&#9;&#9;c-15.558-31.243,0.306-62.257,20.625-86.778c21.949-26.482,51.13-52.428,56.35-88.255c4.736-32.389-9.319-64.268-39.951-77.738&#10;&#9;&#9;c-8.199-3.59-2.903-8.25,4.889-13.368c4.303-3.565,21.007-9.039,26.431-11.713c-6.364-0.204-26.266,0.763-32.663,1.451&#10;&#9;&#9;c-8.833,0.949-17.766,2.538-26.131,5.602c-11.815,4.329-16.525-0.993-9.396-7.868c8.072-7.792,31.396-18.359,40.079-23.655&#10;&#9;&#9;c-34.782,1.655-73.893,17.926-97.854,34.248c-6.544,4.456-14.234-1.553-10.109-7.537c5.016-7.308,17.671-20.269,23.095-26.711&#10;&#9;&#9;c-47.463,8.683-60.653,44.815-75.014,68.521c-9.396,15.532-24.139,50.06-45.757,53.88c4.278,6.06,8.785,12.12,15.558,14.87&#10;&#9;&#9;c15.991,6.442,34.986-9.116,47.285-17.62c14.157-9.803,27.322-21.058,38.704-34.044c3.208-3.667,10.363-1.299,11.127,3.412&#10;&#9;&#9;c3.947,24.368-4.66,54.032-18.079,74.326c1.604-0.866,8.632-1.655,13.648-7.512c6.188-7.232,11.738-13.495,16.424-21.694&#10;&#9;&#9;c7.792-13.648,8.556-20.829,10.007-38.424c0.586-6.926,2.852-14.31,10.567-17.519c9.218-4.074,23.477-1.375,31.931,1.604&#10;&#9;&#9;c15.074,5.322,25.081,19.046,28.213,34.426c7.486,36.463-19.632,64.778-46.037,85.352c-31.243,24.317-66,45.706-91.718,76.338&#10;&#9;&#9;c-13.037,15.507-22.789,33.178-29.028,52.428c-3.132,9.574-5.525,19.428-6.748,29.435c-0.255,1.986-0.382,3.972-0.458,5.958&#10;&#9;&#9;c7.053-6.595,15.507-11.942,23.808-16.729c6.035-3.438,13.648,4.15,10.975,10.211c-12.884,29.359-14.336,61.646-3.692,91.565&#10;&#9;&#9;c18.282-7.13,34.451-7.359,52.428,4.583c20.956,13.928,27.347,21.567,54.873,25.056c3.565,0.458,10.542,1.63,14.972,0.789&#10;&#9;&#9;c3.87-0.229,6.926,0.28,7.359,5.169c3.234,36.005-5.042,53.09-34.35,64.956c-19.861,8.046-56.197,14.743-68.164,31.167&#10;&#9;&#9;c39.544-4.125,86.396-6.799,125.787-2.495c-5.424-10.44-11.28-24.852-10.134-38.525c1.604-18.995,7.206-35.954,15.1-52.046&#10;&#9;&#9;c4.914-10.032,10.745-19.708,17.035-29.333c-32.771-8.123-60.525-28.315-78.604-57.572c-5.806-9.396,9.472-17.162,15.201-7.868&#10;&#9;&#9;c17.162,27.806,45.731,46.546,78.12,51.104c6.162,0.866,10.516,7.537,6.595,13.241c-6.188,9.039-12.528,18.232-18.053,27.78&#10;&#9;&#9;c25.667,3.667,47.819-0.255,64.625-5.856c18.053-6.035,27.424-13.775,43.262-24.241c14.487-9.555,29.118-18.989,42.554-30.01&#10;&#9;&#9;c6.694-5.491,13.094-11.364,18.897-17.796c5.715-6.334,9.993-14.21,16.414-19.848c2.611-2.292,7.843-2.801,10.16,0.509&#10;&#9;&#9;c0.993,1.019,1.604,2.343,1.706,3.921c6.188,16.551,10.745,32.643,21.516,47.208c10.338,14.005,23.731,25.361,38.933,33.789&#10;&#9;&#9;c16.22,9.014,34.604,14.488,53.039,16.5c13.113,1.426,27.398,0.866,39.34,7.333c28.289,15.38,18.231,40.588-4.482,53.88&#10;&#9;&#9;c-14.565,8.505-32.007,13.648-47.59,19.759c-9.116,3.59-22.153,15.787-27.5,22.026c41.25-11.738,88.56-18.512,131.516-17.137&#10;&#9;&#9;c-6.595-12.553-9.778-26.532-10.465-41.174c-0.611-13.292,1.019-26.482,2.979-39.595c1.069-7.053,3.692-15.634,4.813-23.732&#10;&#9;&#9;c-24.063,8.912-53.854,5.576-74.887-8.377c-30.046-19.887-35.648-48.965-41.479-82.093c-1.91-10.822,14.183-8.097,14.234-7.741&#10;&#9;&#9;c28.773,5.322,56.935,12.91,83.366,25.794c28.722,14.03,51.282,34.171,72.977,57.317c20.498,21.847,37.507,49.475,61.188,67.884&#10;&#9;&#9;C982.784,927.735,1011.837,938.481,1040.229,937.055z M820.763,449.974c-18.792-19.53-23.757-58.387-10.771-82.373&#10;&#9;&#9;c-22.28,8.963-48.889,19.938-69.743,30.428c-15.532,7.843-31.65,15.227-47.361,23.324c-15.711,8.123-31.039,16.933-44.917,27.653&#10;&#9;&#9;c-18.308,12.477-32.465,23.248-45.757,33.637c23.757-14.106,62.563-23.324,88.586-27.551&#10;&#9;&#9;C731.388,448.522,779.895,452.596,820.763,449.974z M779.59,496.367c5.169-13.877,14.896-24.393,25.59-32.975&#10;&#9;&#9;c-32.643,2.495-74.785-1.248-107.224,3.285c-21.822,3.056-50.289,9.574-72.366,18.563c20.6,1.248,47.794,11.076,64.574,16.067&#10;&#9;&#9;c28.697,8.53,59.711,21.491,84.232,37.914c-0.509-2.241-0.866-4.66-1.019-7.435C772.638,519.819,775.414,507.495,779.59,496.367z&#10;&#9;&#9; M673.078,891.527c-1.451-0.458-22.484-27.984-22.051-54.898c-8.174-10.669-14.947-22.764-18.664-35.343&#10;&#9;&#9;c-6.366,7.41-14.387,13.979-20.549,19.148c-14.641,12.299-30.607,23.171-46.419,33.866c-1.069,0.738-2.164,1.477-3.285,2.215&#10;&#9;&#9;c18.155,18.868,49.551,20.803,68.979,38.857c3.539,3.31-1.757,10.058-4.762,13.139c-15.074,15.482-30.403,29.919-42.421,34.655&#10;&#9;&#9;c-13.725,5.424-43.236,8.25-60.5,23.833c34.477-4.583,71.143-5.933,105.442,1.63C640.638,941.74,653.777,913.68,673.078,891.527z&#10;&#9;&#9; M294.342,847.858c-7.308,0.306-19.887,3.259-28.009,7.13c-3.947,1.884-9.625,0.509-11.458-3.794&#10;&#9;&#9;c-4.914-11.433-9.676-26.227-11.458-38.144c-16.067,39.111-33.586,72.799-66.255,101.877&#10;&#9;&#9;c-15.838,14.081-36.769,24.393-56.477,31.447c-6.773,2.393-23.782,9.345-37.125,15.812c18.308-2.903,36.718-3.718,55.637-3.768&#10;&#9;&#9;c19.174-0.025,40.995-1.604,60.067,4.023c-3.59-13.012-5.755-26.278-1.502-39.722c3.947-12.502,18.282-20.294,28.671-27.016&#10;&#9;&#9;C249.655,880.705,271.069,863.008,294.342,847.858z M271.502,450.381c-2.394,1.095-4.685,2.546-6.391,4.532&#10;&#9;&#9;c-4.736,5.5-1.477,11.229,3.845,14.641c1.757,1.146,4.711,0.611,6.111-0.891c3.081-3.336,6.544-6.238,9.701-9.498&#10;&#9;&#9;c4.278-4.405,7.843-12.426-1.528-11.764C278.657,447.733,272.979,449.694,271.502,450.381z M251.921,555.008&#10;&#9;&#9;c0.789,0.738,1.248,1.782,1.019,3.081c-0.051,0.357-0.127,0.738-0.28,1.12c-0.764,1.961-1.604,3.794-2.546,5.551&#10;&#9;&#9;c-4.787,11.28-7.435,21.847-6.977,34.681c0.458,12.299,5.347,25.947,1.706,38.194c-3.769,12.706-18.333,26.507-32.262,20.625&#10;&#9;&#9;c-4.889-2.063-6.137-11.076-0.28-12.833c12.782-3.845,18.843-9.243,18.104-23.935c-0.28-5.729-0.917-11.255-1.146-16.907&#10;&#9;&#9;c-5.296,9.549-14.794,17.035-23.604,23.095c-5.093,3.514-10.898,6.315-12.146,13.113c-0.968,5.373,2.343,12.018,3.336,17.238&#10;&#9;&#9;c1.35,6.977,1.35,13.394-1.91,19.887c-6.951,13.928-27.144,29.715-43.211,29.639c-11.942-0.051-24.164-6.391-33.204-13.852&#10;&#9;&#9;c-4.15-3.412-5.093-10.593,0.637-13.241c5.449-2.521,10.745-4.991,16.322-7.13c5.093-1.961,11.458-2.088,8.275-7.613&#10;&#9;&#9;c-3.081-5.347-10.363-1.375-14.947,0.407c-18.613,7.232-30.963,23.859-41.963,39.722c-4.1,5.907-15.023,3.31-14.132-4.609&#10;&#9;&#9;c3.488-30.836,10.287-59.991,38.933-76.822c14.106-8.301,30.352-12.655,46.19-16.322c20.319-4.685,42.905-5.449,60.602-17.417&#10;&#9;&#9;c0.127-0.306,0.28-0.637,0.433-0.968c-10.516,2.979-22.178,3.056-33.56,0.357c-16.958-4.023-33-11.738-50.824-9.727&#10;&#9;&#9;c-7.053,0.789-20.065,0.917-23.248,8.734c-4.023,9.905,5.984,4.303,11.076,3.947c1.91-0.127,3.692,1.706,4.329,3.31&#10;&#9;&#9;c0.204,0.535,0.407,1.069,0.611,1.604c1.299,3.31,1.146,7.843-2.063,10.16c-9.981,7.206-25.565,6.213-31.472-6.213&#10;&#9;&#9;c-6.595-13.826,6.468-30.148,18.868-34.91c17.035-6.569,37.354-4.762,54.44,0.178c27.144,7.868,58.641,17.62,77.535-11.586&#10;&#9;&#9;C246.344,552.819,250.087,553.073,251.921,555.008z M199.722,612.682c-2.317,0.84-4.736,1.63-7.333,2.292&#10;&#9;&#9;c-14.947,3.794-30.021,6.238-44.815,10.771c-16.525,5.093-34.197,11.789-44.968,26.125c-4.889,6.468-7.919,13.903-9.981,21.669&#10;&#9;&#9;c4.711-5.042,9.803-9.676,15.507-13.623c11.076-7.69,28.264-16.016,41.81-10.542c10.669,4.329,16.296,16.373,9.574,26.558&#10;&#9;&#9;c-4.303,6.493-12.222,10.058-20.141,13.063c5.144,2.419,10.669,3.743,15.965,2.444c8.657-2.113,19.606-10.567,24.317-18.104&#10;&#9;&#9;c5.322-8.505,0.356-16.551-0.942-25.438c-1.91-12.808,2.317-21.262,12.4-28.722C194.145,616.909,197.023,614.795,199.722,612.682z&#10;&#9;&#9; M559.768,784.939c-6.417,4.507-13.241,8.454-20.396,11.688c-5.678,2.597-12.4,4.15-15.456,10.058&#10;&#9;&#9;c-1.171,2.266-0.382,7.512,2.954,7.613c33.076,0.968,67.375-32.949,81.762-60.143c3.387-6.391-7.053-14.234-11.356-7.995&#10;&#9;&#9;C586.988,761.131,574.689,774.474,559.768,784.939z" data-darkreader-inline-fill="" style="--darkreader-inline-fill: #ffd57a; fill: rgb(117, 80, 0);"/>
	<g>
		<path fill="#3E9B66" d="M692.888,421.353c-15.71,8.123-31.039,16.933-44.916,27.653c-18.308,12.477-32.465,23.248-45.757,33.636&#10;&#9;&#9;&#9;c23.757-14.106,62.563-23.324,88.586-27.551c40.588-6.569,89.095-2.495,129.963-5.118c-18.792-19.53-23.757-58.387-10.771-82.373&#10;&#9;&#9;&#9;c-22.28,8.963-48.889,19.938-69.743,30.428C724.717,405.872,708.599,413.256,692.888,421.353z" data-darkreader-inline-fill="" style="--darkreader-inline-fill: #fef486; fill: rgb(254, 246, 154);"/>
		<path fill="#3E9B66" d="M598.548,809.256c5.882-4.838,11.611-9.93,16.831-15.507c5.729-6.162,9.498-13.928,15.761-19.428&#10;&#9;&#9;&#9;c0.968-0.84,2.114-1.35,3.31-1.579c0.209-0.062,0.422-0.102,0.635-0.146c-5.996-7.844-11.995-15.685-18.052-23.482&#10;&#9;&#9;&#9;c-1.411-0.576-2.847-1.114-4.327-1.579c-1.289,0.597-2.531,1.286-3.76,2c0.499,1.482,0.495,3.091-0.315,4.62&#10;&#9;&#9;&#9;c-14.386,27.194-48.685,61.111-81.762,60.143c-2.413-0.074-3.477-2.835-3.446-5.217c-19.489,9.632-39.287,18.639-59.369,26.966&#10;&#9;&#9;&#9;c-0.012,0.005-0.021,0.012-0.033,0.017c1.266,2.453,1.328,5.454-0.58,8.23c-6.187,9.039-12.528,18.231-18.053,27.78&#10;&#9;&#9;&#9;c25.667,3.667,47.819-0.255,64.625-5.856c0.421-0.141,0.816-0.288,1.228-0.43c8.731-3.729,17.222-8.058,25.265-12.567&#10;&#9;&#9;&#9;c5.202-3.362,10.474-7.085,16.768-11.244C568.756,831.765,584.238,821.071,598.548,809.256z" data-darkreader-inline-fill="" style="--darkreader-inline-fill: #fef486; fill: rgb(254, 246, 154);"/>
		<path fill="#3E9B66" d="M779.589,496.367c5.169-13.877,14.896-24.394,25.59-32.975c-32.643,2.495-74.785-1.248-107.224,3.285&#10;&#9;&#9;&#9;c-21.822,3.056-50.289,9.574-72.366,18.562c20.6,1.248,47.794,11.076,64.574,16.067c28.697,8.53,59.711,21.491,84.232,37.914&#10;&#9;&#9;&#9;c-0.51-2.241-0.866-4.66-1.019-7.435C772.691,519.343,775.224,508.002,779.589,496.367z" data-darkreader-inline-fill="" style="--darkreader-inline-fill: #fef486; fill: rgb(254, 246, 154);"/>
		<path fill="#3E9B66" d="M621.745,631.245c26.532-11.611,54.745-12.171,82.882-8.785c-11.076-14.565-22.153-29.206-33.738-43.287&#10;&#9;&#9;&#9;c-6.238-7.563-13.317-14.692-20.905-20.88c-6.442-5.245-14.209-8.708-18.588-16.118c-2.24-3.743-1.273-8.734,3.794-8.505&#10;&#9;&#9;&#9;c13.037,0.535,34.349,19.225,46.063,33.942c10.426,13.096,24.836,30.38,33.725,44.831c0.015-0.022,0.029-0.045,0.044-0.068&#10;&#9;&#9;&#9;c0.053-12.474,7.83-26.986,12.981-33.254c12.171-14.845,24.877-24.113,42.931-27.347c-27.5-16.398-56.069-29.13-87.16-38.245&#10;&#9;&#9;&#9;c-29.486-8.657-64.498-24.572-93.857-12.299c-5.067,6.697-9.523,13.877-13.241,21.16c-5.598,10.989-8.164,19.75-8.904,28.271&#10;&#9;&#9;&#9;c0.352,0.737,0.772,1.436,1.26,2.083c-0.592,1.936-1.059,3.892-1.465,5.857c0.295,8.716,2.116,17.821,4.22,29.407&#10;&#9;&#9;&#9;c2.852,15.711,11.127,41.938,4.812,50.85c-0.426,0.602-1.031,1.109-1.736,1.521c-0.1,1.894-0.216,3.804-0.362,5.751&#10;&#9;&#9;&#9;c-0.412,5.504,3.44,9.71,8.219,11.595C592.384,645.533,609.396,636.64,621.745,631.245z" data-darkreader-inline-fill="" style="--darkreader-inline-fill: #fef486; fill: rgb(254, 246, 154);"/>
		<path fill="#3E9B66" d="M863.19,830.723c-1.142-1.019-2.291-2.028-3.451-3.026C860.888,828.708,862.048,829.706,863.19,830.723z" data-darkreader-inline-fill="" style="--darkreader-inline-fill: #fef486; fill: rgb(254, 246, 154);"/>
		<path fill="#3E9B66" d="M871.706,807.251c-3.978-5.049-8.463-9.582-13.132-13.929c-1.171-0.968-2.322-1.961-3.499-2.923&#10;&#9;&#9;&#9;c-33.303-27.206-73.38-56.662-118.725-41.416c-8.507,2.86-10.312,11.598-7.621,18.004c-1.719-10.63,14.196-7.943,14.246-7.589&#10;&#9;&#9;&#9;c28.773,5.322,56.935,12.91,83.366,25.794c23.222,11.344,42.395,26.724,60.361,44.416&#10;&#9;&#9;&#9;C882.17,821.824,877.253,814.293,871.706,807.251z" data-darkreader-inline-fill="" style="--darkreader-inline-fill: #fef486; fill: rgb(254, 246, 154);"/>
		<path fill="#3E9B66" d="M817.855,382.849c0.119-0.179,0.251-0.346,0.366-0.528c0.99-1.56,1.494-3.536,1.629-5.519&#10;&#9;&#9;&#9;C819.075,378.768,818.412,380.787,817.855,382.849z" data-darkreader-inline-fill="" style="--darkreader-inline-fill: #fef486; fill: rgb(254, 246, 154);"/>
	</g>
	<g>
		<path fill="#DF6568" d="M204.358,633.491c-3.235,6.208-0.926,13.42,4.076,16.97c0.203-2.257,1.396-4.292,3.867-5.033&#10;&#9;&#9;&#9;c12.782-3.845,18.842-9.243,18.104-23.935c-0.28-5.729-0.916-11.255-1.146-16.907c-4.942,8.908-13.535,16.004-21.819,21.839&#10;&#9;&#9;&#9;C206.573,628.811,205.566,631.172,204.358,633.491z" data-darkreader-inline-fill="" style="--darkreader-inline-fill: #1afbff; fill: rgb(0, 251, 255);"/>
		<path fill="#DF6568" d="M147.573,625.745c-16.525,5.093-34.197,11.789-44.967,26.125c-4.889,6.468-7.919,13.903-9.981,21.669&#10;&#9;&#9;&#9;c4.71-5.042,9.803-9.676,15.507-13.623c11.077-7.69,28.264-16.016,41.81-10.542c10.669,4.329,16.297,16.373,9.575,26.558&#10;&#9;&#9;&#9;c-4.304,6.493-12.223,10.058-20.142,13.063c5.144,2.419,10.669,3.743,15.965,2.444c8.657-2.113,19.606-10.567,24.317-18.104&#10;&#9;&#9;&#9;c5.322-8.505,0.356-16.551-0.942-25.438c-1.91-12.808,2.317-21.261,12.401-28.722c3.03-2.266,5.908-4.38,8.606-6.493&#10;&#9;&#9;&#9;c-2.317,0.84-4.736,1.63-7.333,2.292C177.441,618.768,162.368,621.212,147.573,625.745z" data-darkreader-inline-fill="" style="--darkreader-inline-fill: #1afbff; fill: rgb(0, 251, 255);"/>
		<path fill="#DF6568" d="M134.486,580.344c-7.053,0.789-20.065,0.917-23.248,8.734c-4.023,9.905,5.984,4.303,11.077,3.947&#10;&#9;&#9;&#9;c1.91-0.127,3.692,1.706,4.329,3.31c0.204,0.535,0.408,1.069,0.611,1.604c0.031,0.08,0.05,0.168,0.08,0.249&#10;&#9;&#9;&#9;c4.173-3.216,9.105-5.457,13.368-4.935c10.359,1.27,20.62,5.873,30.958,7.309c2.664,0.37,12.179,0.693,20.037,0.963&#10;&#9;&#9;&#9;c9.48-2.234,18.626-5.356,26.74-10.843c0.127-0.306,0.28-0.637,0.433-0.968c-10.516,2.979-22.178,3.055-33.56,0.356&#10;&#9;&#9;&#9;C168.351,586.048,152.31,578.332,134.486,580.344z" data-darkreader-inline-fill="" style="--darkreader-inline-fill: #1afbff; fill: rgb(0, 251, 255);"/>
	</g>
</g>
</svg>